HIERARCHY
ROOT mixamorig:Hips
{
	OFFSET -0.000008 104.274872 1.554316
	CHANNELS 6 Xposition Yposition Zposition Xrotation Yrotation Zrotation
	JOINT mixamorig:Spine
	{
		OFFSET -0.000005 10.181595 0.131519
		CHANNELS 6 Xposition Yposition Zposition Xrotation Yrotation Zrotation
		JOINT mixamorig:Spine1
		{
			OFFSET -0.000000 9.893959 -1.470707
			CHANNELS 6 Xposition Yposition Zposition Xrotation Yrotation Zrotation
			JOINT mixamorig:Spine2
			{
				OFFSET -0.000000 9.220757 -1.370641
				CHANNELS 6 Xposition Yposition Zposition Xrotation Yrotation Zrotation
				JOINT mixamorig:Neck
				{
					OFFSET 0.000001 16.740417 -2.049036
					CHANNELS 6 Xposition Yposition Zposition Xrotation Yrotation Zrotation
					JOINT mixamorig:Head
					{
						OFFSET 0.000000 9.617874 1.685006
						CHANNELS 6 Xposition Yposition Zposition Xrotation Yrotation Zrotation
						JOINT mixamorig:HeadTop_End
						{
							OFFSET 0.000002 22.037354 7.501101
							CHANNELS 6 Xposition Yposition Zposition Xrotation Yrotation Zrotation
							End Site
							{
								OFFSET 0.000168 2310.654297 -282.823242
							}
						}
					}
				}
				JOINT mixamorig:RightShoulder
				{
					OFFSET -4.569970 11.014908 -2.160885
					CHANNELS 6 Xposition Yposition Zposition Xrotation Yrotation Zrotation
					JOINT mixamorig:RightArm
					{
						OFFSET -10.592851 -0.524811 -2.232101
						CHANNELS 6 Xposition Yposition Zposition Xrotation Yrotation Zrotation
						JOINT mixamorig:RightForeArm
						{
							OFFSET -27.841511 0.000031 -0.000004
							CHANNELS 6 Xposition Yposition Zposition Xrotation Yrotation Zrotation
							JOINT mixamorig:RightHand
							{
								OFFSET -28.328831 -0.000015 0.000015
								CHANNELS 6 Xposition Yposition Zposition Xrotation Yrotation Zrotation
								JOINT mixamorig:RightHandThumb1
								{
									OFFSET -2.464806 -1.573990 2.681852
									CHANNELS 6 Xposition Yposition Zposition Xrotation Yrotation Zrotation
									JOINT mixamorig:RightHandThumb2
									{
										OFFSET -3.215179 -1.872803 1.924282
										CHANNELS 6 Xposition Yposition Zposition Xrotation Yrotation Zrotation
										JOINT mixamorig:RightHandThumb3
										{
											OFFSET -2.654831 -1.527969 1.512609
											CHANNELS 6 Xposition Yposition Zposition Xrotation Yrotation Zrotation
											JOINT mixamorig:RightHandThumb4
											{
												OFFSET -2.018814 -1.152008 1.108052
												CHANNELS 6 Xposition Yposition Zposition Xrotation Yrotation Zrotation
												End Site
												{
													OFFSET -188.809540 -114.533607 132.431396
												}
											}
										}
									}
								}
								JOINT mixamorig:RightHandIndex1
								{
									OFFSET -9.108284 -0.517868 2.259835
									CHANNELS 6 Xposition Yposition Zposition Xrotation Yrotation Zrotation
									JOINT mixamorig:RightHandIndex2
									{
										OFFSET -3.699989 0.000000 0.001215
										CHANNELS 6 Xposition Yposition Zposition Xrotation Yrotation Zrotation
										JOINT mixamorig:RightHandIndex3
										{
											OFFSET -2.850006 0.000031 -0.000522
											CHANNELS 6 Xposition Yposition Zposition Xrotation Yrotation Zrotation
											JOINT mixamorig:RightHandIndex4
											{
												OFFSET -2.772186 -0.000015 -0.000020
												CHANNELS 6 Xposition Yposition Zposition Xrotation Yrotation Zrotation
												End Site
												{
													OFFSET -277.218445 0.000000 -0.050231
												}
											}
										}
									}
								}
								JOINT mixamorig:RightHandMiddle1
								{
									OFFSET -9.532516 -0.000031 -0.000023
									CHANNELS 6 Xposition Yposition Zposition Xrotation Yrotation Zrotation
									JOINT mixamorig:RightHandMiddle2
									{
										OFFSET -3.700005 -0.000015 0.003713
										CHANNELS 6 Xposition Yposition Zposition Xrotation Yrotation Zrotation
										JOINT mixamorig:RightHandMiddle3
										{
											OFFSET -2.949974 0.000015 -0.002054
											CHANNELS 6 Xposition Yposition Zposition Xrotation Yrotation Zrotation
											JOINT mixamorig:RightHandMiddle4
											{
												OFFSET -2.946640 0.000000 -0.000156
												CHANNELS 6 Xposition Yposition Zposition Xrotation Yrotation Zrotation
												End Site
												{
													OFFSET -294.664337 0.000000 -0.113670
												}
											}
										}
									}
								}
								JOINT mixamorig:RightHandRing1
								{
									OFFSET -9.103600 -0.043076 -1.865134
									CHANNELS 6 Xposition Yposition Zposition Xrotation Yrotation Zrotation
									JOINT mixamorig:RightHandRing2
									{
										OFFSET -3.379288 0.000000 -0.001055
										CHANNELS 6 Xposition Yposition Zposition Xrotation Yrotation Zrotation
										JOINT mixamorig:RightHandRing3
										{
											OFFSET -2.889687 -0.000015 0.000379
											CHANNELS 6 Xposition Yposition Zposition Xrotation Yrotation Zrotation
											JOINT mixamorig:RightHandRing4
											{
												OFFSET -2.638809 -0.000015 0.000941
												CHANNELS 6 Xposition Yposition Zposition Xrotation Yrotation Zrotation
												End Site
												{
													OFFSET -263.880371 0.000000 0.516020
												}
											}
										}
									}
								}
								JOINT mixamorig:RightHandPinky1
								{
									OFFSET -8.076683 -0.486710 -3.806280
									CHANNELS 6 Xposition Yposition Zposition Xrotation Yrotation Zrotation
									JOINT mixamorig:RightHandPinky2
									{
										OFFSET -3.600014 -0.000015 -0.003747
										CHANNELS 6 Xposition Yposition Zposition Xrotation Yrotation Zrotation
										JOINT mixamorig:RightHandPinky3
										{
											OFFSET -2.099983 0.000000 -0.005739
											CHANNELS 6 Xposition Yposition Zposition Xrotation Yrotation Zrotation
											JOINT mixamorig:RightHandPinky4
											{
												OFFSET -2.115768 -0.000031 -0.003680
												CHANNELS 6 Xposition Yposition Zposition Xrotation Yrotation Zrotation
												End Site
												{
													OFFSET -211.577087 0.000000 -0.350686
												}
											}
										}
									}
								}
							}
						}
					}
				}
				JOINT mixamorig:LeftShoulder
				{
					OFFSET 4.570447 11.014725 -2.160855
					CHANNELS 6 Xposition Yposition Zposition Xrotation Yrotation Zrotation
					JOINT mixamorig:LeftArm
					{
						OFFSET 10.592371 -0.524597 -2.232119
						CHANNELS 6 Xposition Yposition Zposition Xrotation Yrotation Zrotation
						JOINT mixamorig:LeftForeArm
						{
							OFFSET 27.841532 -0.000031 0.000026
							CHANNELS 6 Xposition Yposition Zposition Xrotation Yrotation Zrotation
							JOINT mixamorig:LeftHand
							{
								OFFSET 28.328846 -0.000061 0.000022
								CHANNELS 6 Xposition Yposition Zposition Xrotation Yrotation Zrotation
								JOINT mixamorig:LeftHandThumb1
								{
									OFFSET 2.466141 -1.576172 2.681732
									CHANNELS 6 Xposition Yposition Zposition Xrotation Yrotation Zrotation
									JOINT mixamorig:LeftHandThumb2
									{
										OFFSET 3.217812 -1.872070 1.916482
										CHANNELS 6 Xposition Yposition Zposition Xrotation Yrotation Zrotation
										JOINT mixamorig:LeftHandThumb3
										{
											OFFSET 2.656029 -1.528778 1.514513
											CHANNELS 6 Xposition Yposition Zposition Xrotation Yrotation Zrotation
											JOINT mixamorig:LeftHandThumb4
											{
												OFFSET 2.020889 -1.154053 1.115139
												CHANNELS 6 Xposition Yposition Zposition Xrotation Yrotation Zrotation
												End Site
												{
													OFFSET 190.885437 -115.081749 130.048782
												}
											}
										}
									}
								}
								JOINT mixamorig:LeftHandIndex1
								{
									OFFSET 9.109314 -0.518021 2.259871
									CHANNELS 6 Xposition Yposition Zposition Xrotation Yrotation Zrotation
									JOINT mixamorig:LeftHandIndex2
									{
										OFFSET 3.699989 0.000000 -0.000322
										CHANNELS 6 Xposition Yposition Zposition Xrotation Yrotation Zrotation
										JOINT mixamorig:LeftHandIndex3
										{
											OFFSET 2.850006 0.000000 0.000352
											CHANNELS 6 Xposition Yposition Zposition Xrotation Yrotation Zrotation
											JOINT mixamorig:LeftHandIndex4
											{
												OFFSET 2.774864 -0.000031 -0.000027
												CHANNELS 6 Xposition Yposition Zposition Xrotation Yrotation Zrotation
												End Site
												{
													OFFSET 277.486267 0.000000 -0.009857
												}
											}
										}
									}
								}
								JOINT mixamorig:LeftHandMiddle1
								{
									OFFSET 9.533394 0.000061 0.000044
									CHANNELS 6 Xposition Yposition Zposition Xrotation Yrotation Zrotation
									JOINT mixamorig:LeftHandMiddle2
									{
										OFFSET 3.699989 -0.000015 -0.000231
										CHANNELS 6 Xposition Yposition Zposition Xrotation Yrotation Zrotation
										JOINT mixamorig:LeftHandMiddle3
										{
											OFFSET 2.949997 -0.000015 -0.000059
											CHANNELS 6 Xposition Yposition Zposition Xrotation Yrotation Zrotation
											JOINT mixamorig:LeftHandMiddle4
											{
												OFFSET 2.952896 0.000031 0.000063
												CHANNELS 6 Xposition Yposition Zposition Xrotation Yrotation Zrotation
												End Site
												{
													OFFSET 295.289337 0.000000 0.022810
												}
											}
										}
									}
								}
								JOINT mixamorig:LeftHandRing1
								{
									OFFSET 9.104523 -0.042999 -1.865074
									CHANNELS 6 Xposition Yposition Zposition Xrotation Yrotation Zrotation
									JOINT mixamorig:LeftHandRing2
									{
										OFFSET 3.150009 -0.000031 0.000043
										CHANNELS 6 Xposition Yposition Zposition Xrotation Yrotation Zrotation
										JOINT mixamorig:LeftHandRing3
										{
											OFFSET 2.949982 -0.000015 0.000040
											CHANNELS 6 Xposition Yposition Zposition Xrotation Yrotation Zrotation
											JOINT mixamorig:LeftHandRing4
											{
												OFFSET 2.644348 0.000000 0.000057
												CHANNELS 6 Xposition Yposition Zposition Xrotation Yrotation Zrotation
												End Site
												{
													OFFSET 264.434631 0.000000 0.012105
												}
											}
										}
									}
								}
								JOINT mixamorig:LeftHandPinky1
								{
									OFFSET 8.077789 -0.486847 -3.806259
									CHANNELS 6 Xposition Yposition Zposition Xrotation Yrotation Zrotation
									JOINT mixamorig:LeftHandPinky2
									{
										OFFSET 3.599953 0.000031 0.014727
										CHANNELS 6 Xposition Yposition Zposition Xrotation Yrotation Zrotation
										JOINT mixamorig:LeftHandPinky3
										{
											OFFSET 2.100021 0.000015 0.007705
											CHANNELS 6 Xposition Yposition Zposition Xrotation Yrotation Zrotation
											JOINT mixamorig:LeftHandPinky4
											{
												OFFSET 2.125504 0.000031 0.007517
												CHANNELS 6 Xposition Yposition Zposition Xrotation Yrotation Zrotation
												End Site
												{
													OFFSET 212.550781 0.000000 0.625752
												}
											}
										}
									}
								}
							}
						}
					}
				}
			}
		}
	}
	JOINT mixamorig:RightUpLeg
	{
		OFFSET -8.207787 -6.751648 -1.599560
		CHANNELS 6 Xposition Yposition Zposition Xrotation Yrotation Zrotation
		JOINT mixamorig:RightLeg
		{
			OFFSET -0.000002 -44.370117 0.345942
			CHANNELS 6 Xposition Yposition Zposition Xrotation Yrotation Zrotation
			JOINT mixamorig:RightFoot
			{
				OFFSET 0.000003 -44.423679 -3.043532
				CHANNELS 6 Xposition Yposition Zposition Xrotation Yrotation Zrotation
				JOINT mixamorig:RightToeBase
				{
					OFFSET -0.000002 -8.728671 10.710558
					CHANNELS 6 Xposition Yposition Zposition Xrotation Yrotation Zrotation
					JOINT mixamorig:RightToe_End
					{
						OFFSET -0.000001 -0.000679 9.278119
						CHANNELS 6 Xposition Yposition Zposition Xrotation Yrotation Zrotation
						End Site
						{
							OFFSET 0.000000 -0.067690 927.812134
						}
					}
				}
			}
		}
	}
	JOINT mixamorig:LeftUpLeg
	{
		OFFSET 8.207793 -6.751686 -1.599556
		CHANNELS 6 Xposition Yposition Zposition Xrotation Yrotation Zrotation
		JOINT mixamorig:LeftLeg
		{
			OFFSET -0.000004 -44.370014 0.346954
			CHANNELS 6 Xposition Yposition Zposition Xrotation Yrotation Zrotation
			JOINT mixamorig:LeftFoot
			{
				OFFSET -0.000001 -44.423672 -3.044401
				CHANNELS 6 Xposition Yposition Zposition Xrotation Yrotation Zrotation
				JOINT mixamorig:LeftToeBase
				{
					OFFSET -0.000002 -8.728669 10.710558
					CHANNELS 6 Xposition Yposition Zposition Xrotation Yrotation Zrotation
					JOINT mixamorig:LeftToe_End
					{
						OFFSET -0.000003 -0.000679 9.278133
						CHANNELS 6 Xposition Yposition Zposition Xrotation Yrotation Zrotation
						End Site
						{
							OFFSET 0.000000 -0.068021 927.813477
						}
					}
				}
			}
		}
	}
}
MOTION
Frames: 3
Frame Time: 0.033333
0.000006 104.270477 1.554256 0.000010 0.000003 -0.000113 -0.000005 10.181587 0.131522 0.000001 -0.000003 0.000084 -0.000000 9.893967 -1.470711 0.000001 0.000000 -0.000000 -0.000000 9.220802 -1.370642 0.000000 -0.000000 -0.000000 0.000001 16.740433 -2.049030 0.000000 -0.000000 -0.000000 0.000000 9.617859 1.685014 0.000000 0.000000 0.000000 0.000002 22.037384 7.501101 0.000000 -0.000000 0.000000 -4.569968 11.014880 -2.160881 0.000008 0.000001 -0.000038 -10.592873 -0.524680 -2.232014 73.321780 9.446584 -7.038356 -27.841555 0.000038 0.000535 121.615480 57.341057 -88.767836 -28.328838 0.000006 0.000020 -0.000324 -0.000044 0.000007 -2.464428 -1.573923 2.682385 -30.753391 -155.378129 26.499107 -3.215266 -1.872563 1.924648 154.718634 33.618365 15.909611 -2.654930 -1.527893 1.513101 149.810705 26.372995 -37.029362 -2.018834 -1.152032 1.108065 0.000001 0.000001 0.000002 -9.108382 -0.517575 2.260160 106.900787 18.498463 -24.843099 -3.700072 0.000310 0.001530 103.359579 15.520579 -19.536385 -2.850075 0.000364 -0.000230 100.802111 11.691227 -14.109164 -2.772173 0.000001 -0.000026 0.000000 0.000001 -0.000002 -9.532586 0.000250 0.000269 100.666941 17.484173 -21.184264 -3.700071 0.000323 0.004008 100.674352 13.642260 -16.303002 -2.950058 0.000339 -0.001763 100.704664 11.495978 -13.843065 -2.946627 0.000014 -0.000160 0.000000 0.000002 0.000001 -9.103697 -0.042774 -1.864840 99.884960 18.127247 -21.432270 -3.379350 0.000323 -0.000776 102.924250 11.052714 -13.873785 -2.889760 0.000367 0.000685 106.037621 7.041144 -9.401985 -2.638814 -0.000027 0.000943 0.000000 -0.000000 0.000002 -8.076744 -0.486395 -3.805988 93.514770 17.808547 -18.755467 -3.600042 0.000306 -0.003466 97.749405 9.130988 -10.041100 -2.100026 0.000312 -0.005444 100.019009 4.904733 -5.586921 -2.115766 -0.000040 -0.003676 0.000001 0.000001 -0.000007 4.570446 11.014691 -2.160851 -0.000018 0.000010 -0.000021 10.592362 -0.524526 -2.232285 69.206195 7.284085 -5.029016 27.841822 0.000121 -0.000217 97.636625 -61.835936 68.789274 28.328840 -0.000030 0.000024 0.000020 -0.000088 -0.000000 2.466201 -1.576118 2.681863 -2.364200 160.785768 -79.973039 3.217867 -1.871822 1.916399 164.227964 -24.296262 31.204863 2.656085 -1.528684 1.514488 132.746858 -29.993249 58.637871 2.020890 -1.154074 1.115144 -0.000001 0.000005 0.000006 9.109367 -0.517882 2.259732 78.111833 -17.394108 14.140335 3.700030 0.000118 -0.000468 76.623391 -15.645465 12.404006 2.850050 0.000131 0.000210 73.546138 -13.138288 9.837078 2.774891 -0.000025 -0.000020 -0.000003 0.000000 0.000004 9.533457 0.000181 -0.000086 77.218963 -16.122146 12.898128 3.700056 0.000153 -0.000385 80.678481 -13.907622 11.824736 2.950049 0.000150 -0.000169 81.037456 -16.177598 13.853501 2.952858 -0.000041 0.000063 -0.000001 -0.000003 -0.000000 9.104581 -0.042879 -1.865243 76.096196 -15.172449 11.902977 3.150054 0.000166 -0.000093 81.698720 -13.372172 11.577503 2.950028 0.000142 -0.000072 83.931789 -13.566638 12.213356 2.644315 0.000049 0.000055 0.000001 -0.000000 0.000004 8.077827 -0.486756 -3.806416 67.696252 -16.758349 11.688893 3.600003 0.000148 0.014579 68.687995 -14.922659 10.589152 2.100040 0.000142 0.007564 70.960802 -13.572428 10.051853 2.125499 -0.000011 0.007513 0.000001 0.000003 -0.000001 -8.207786 -6.751667 -1.599560 -0.077001 -0.000003 0.000080 -0.000002 -44.370110 0.345938 0.153719 -0.000000 -0.000000 0.000000 -44.423679 -3.043532 -0.076700 0.000000 -0.000002 -0.000006 -8.728667 10.710559 -0.000009 -0.000000 -0.000000 -0.000001 -0.000679 9.278123 0.000000 -0.000000 -0.000000 8.207792 -6.751710 -1.599556 -0.074518 -0.000003 0.000081 -0.000002 -44.370014 0.346960 0.148822 0.000002 0.000000 -0.000001 -44.423664 -3.044403 -0.074314 0.000000 -0.000002 -0.000004 -8.728671 10.710558 0.000007 -0.000000 -0.000000 0.000000 -0.000680 9.278137 -0.000000 0.000000 -0.000001 
0.000006 104.270477 1.554256 0.000010 0.000003 -0.000113 -0.000005 10.181587 0.131522 0.000001 -0.000003 0.000084 -0.000000 9.893967 -1.470711 0.000001 0.000000 -0.000000 -0.000000 9.220802 -1.370642 0.000000 -0.000000 -0.000000 0.000001 16.740433 -2.049030 0.000000 -0.000000 -0.000000 0.000000 9.617859 1.685014 0.000000 0.000000 0.000000 0.000002 22.037384 7.501101 0.000000 -0.000000 0.000000 -4.569968 11.014880 -2.160881 0.000008 0.000001 -0.000038 -10.592863 -0.524670 -2.232024 73.072895 5.551896 -4.115117 -27.841543 0.000027 0.000561 122.149259 57.744742 -89.874778 -28.328835 0.000020 0.000027 -0.000320 -0.000044 0.000009 -2.464424 -1.573840 2.682355 -39.826813 -156.555148 7.808393 -3.215249 -1.872544 1.924640 154.766513 32.718860 10.445399 -2.654958 -1.527887 1.513094 148.961781 26.836684 -34.392379 -2.018833 -1.152020 1.108062 -0.000003 0.000001 -0.000002 -9.108397 -0.517548 2.260149 105.205431 16.814379 -21.944655 -3.700044 0.000310 0.001561 103.907572 12.869878 -16.372040 -2.850078 0.000374 -0.000217 103.622084 9.715559 -12.331852 -2.772174 -0.000019 -0.000012 0.000000 0.000000 -0.000002 -9.532610 0.000274 0.000268 98.465844 17.182943 -20.044744 -3.700079 0.000351 0.004003 100.073302 11.819659 -13.970923 -2.950051 0.000346 -0.001766 103.430695 10.497642 -13.268367 -2.946624 0.000012 -0.000148 -0.000001 0.000001 -0.000000 -9.103720 -0.042748 -1.864831 98.606697 18.532957 -21.431419 -3.379333 0.000317 -0.000776 100.724055 9.559324 -11.548366 -2.889753 0.000357 0.000696 107.276099 6.383206 -8.723977 -2.638803 -0.000014 0.000942 0.000002 -0.000001 0.000001 -8.076768 -0.486384 -3.805987 93.239732 19.121089 -20.050015 -3.600037 0.000290 -0.003469 96.276263 9.246998 -9.914407 -2.100014 0.000322 -0.005439 100.679085 5.053449 -5.831251 -2.115786 -0.000022 -0.003679 0.000002 0.000001 -0.000005 4.570446 11.014691 -2.160851 -0.000018 0.000010 -0.000021 10.592357 -0.524550 -2.232262 69.891051 15.973646 -11.199266 27.841833 0.000112 -0.000227 97.573972 -62.050158 68.956750 28.328823 -0.000026 0.000025 0.000020 -0.000087 -0.000000 2.466238 -1.575850 2.681770 15.983841 198.813146 -150.060267 3.217881 -1.871926 1.916462 163.616594 -14.103506 66.930711 2.656096 -1.528726 1.514530 136.800944 -28.294468 69.647138 2.020890 -1.154071 1.115143 -0.000001 0.000005 0.000006 9.109401 -0.517895 2.259742 77.965441 -22.655372 18.406305 3.700044 0.000140 -0.000464 76.299217 -14.339876 11.300120 2.850039 0.000159 0.000194 75.623520 -10.078380 7.827936 2.774881 -0.000011 -0.000029 0.000001 -0.000003 -0.000001 9.533479 0.000185 -0.000091 76.254459 -20.626936 16.249237 3.700038 0.000160 -0.000376 81.181395 -11.354689 9.735134 2.950043 0.000167 -0.000214 81.776059 -10.100825 8.754061 2.952878 -0.000061 0.000059 -0.000000 -0.000003 -0.000002 9.104607 -0.042873 -1.865220 76.314250 -19.734495 15.565938 3.150038 0.000162 -0.000088 81.638533 -12.820175 11.086916 2.950006 0.000167 -0.000099 81.580435 -9.611046 8.299614 2.644316 0.000014 0.000059 -0.000002 -0.000006 0.000001 8.077856 -0.486757 -3.806382 69.509121 -20.482405 14.725444 3.600005 0.000150 0.014571 68.300034 -16.920407 11.890877 2.100048 0.000140 0.007529 69.258671 -12.037595 8.667864 2.125518 -0.000014 0.007512 0.000000 -0.000001 -0.000006 -8.207786 -6.751667 -1.599560 -0.077001 -0.000003 0.000080 -0.000002 -44.370110 0.345938 0.153719 -0.000000 -0.000000 0.000000 -44.423679 -3.043532 -0.076700 0.000000 -0.000002 -0.000006 -8.728667 10.710559 -0.000009 -0.000000 -0.000000 -0.000001 -0.000679 9.278123 0.000000 -0.000000 -0.000000 8.207792 -6.751710 -1.599556 -0.074518 -0.000003 0.000081 -0.000002 -44.370014 0.346960 0.148822 0.000002 0.000000 -0.000001 -44.423664 -3.044403 -0.074314 0.000000 -0.000002 -0.000004 -8.728671 10.710558 0.000007 -0.000000 -0.000000 0.000000 -0.000680 9.278137 -0.000000 0.000000 -0.000001 
0.000006 104.270477 1.554256 0.000010 0.000003 -0.000113 -0.000005 10.181587 0.131522 0.000001 -0.000003 0.000084 -0.000000 9.893967 -1.470711 0.000001 0.000000 -0.000000 -0.000000 9.220802 -1.370642 0.000000 -0.000000 -0.000000 0.000001 16.740433 -2.049030 0.000000 -0.000000 -0.000000 0.000000 9.617859 1.685014 0.000000 0.000000 0.000000 0.000002 22.037384 7.501101 0.000000 -0.000000 0.000000 -4.569968 11.014880 -2.160881 0.000008 0.000001 -0.000038 -10.592866 -0.524677 -2.232017 73.174515 7.005349 -5.203139 -27.841532 0.000036 0.000550 122.237314 58.537713 -90.912427 -28.328812 0.000022 0.000021 -0.000322 -0.000044 0.000007 -2.464413 -1.573850 2.682354 -39.316683 -156.438598 8.892978 -3.215273 -1.872546 1.924642 154.831250 32.928113 11.634338 -2.654951 -1.527868 1.513098 149.022830 26.688100 -35.626936 -2.018818 -1.152015 1.108060 -0.000005 -0.000005 -0.000001 -9.108384 -0.517558 2.260147 106.078445 16.544390 -21.932788 -3.700067 0.000318 0.001530 104.046416 12.777150 -16.294606 -2.850080 0.000382 -0.000222 103.453412 9.688444 -12.260632 -2.772177 -0.000019 -0.000020 -0.000000 0.000000 -0.000001 -9.532604 0.000265 0.000280 99.049238 17.065156 -20.111041 -3.700058 0.000346 0.004021 100.119030 11.687218 -13.824840 -2.950070 0.000351 -0.001766 103.269339 10.413894 -13.125091 -2.946635 -0.000000 -0.000160 -0.000000 0.000001 0.000001 -9.103714 -0.042762 -1.864831 98.893025 18.344170 -21.319018 -3.379334 0.000323 -0.000754 100.810614 9.328132 -11.287301 -2.889746 0.000346 0.000691 106.900076 6.316438 -8.574591 -2.638817 0.000004 0.000952 -0.000001 -0.000001 0.000003 -8.076751 -0.486386 -3.805982 93.629708 18.749870 -19.790782 -3.600039 0.000307 -0.003459 96.287096 8.890354 -9.520574 -2.100019 0.000315 -0.005439 100.128408 4.893825 -5.584762 -2.115776 -0.000045 -0.003677 -0.000004 -0.000000 -0.000003 4.570446 11.014691 -2.160851 -0.000018 0.000010 -0.000021 10.592355 -0.524562 -2.232254 70.377771 18.712162 -13.253622 27.841824 0.000107 -0.000227 97.233508 -63.712442 70.386138 28.328836 -0.000028 0.000017 0.000020 -0.000091 -0.000002 2.466210 -1.575875 2.681786 17.128882 198.424686 -149.806430 3.217868 -1.871970 1.916476 162.271948 -13.417581 71.234454 2.656111 -1.528704 1.514503 139.255222 -27.161586 68.293682 2.020906 -1.154083 1.115138 0.000002 0.000005 0.000006 9.109370 -0.517898 2.259746 79.180047 -22.519098 18.687568 3.700041 0.000140 -0.000456 78.952424 -15.327827 12.663217 2.850033 0.000165 0.000196 78.444750 -11.101079 9.069442 2.774876 -0.000032 -0.000027 -0.000002 -0.000002 -0.000002 9.533451 0.000174 -0.000077 76.315835 -19.362862 15.262201 3.700040 0.000159 -0.000404 82.537003 -11.385329 9.996389 2.950042 0.000153 -0.000186 83.202742 -10.349944 9.197388 2.952862 -0.000010 0.000053 -0.000003 0.000001 0.000001 9.104568 -0.042876 -1.865202 75.764222 -18.459387 14.411645 3.150047 0.000176 -0.000103 81.328695 -12.729105 10.948342 2.950007 0.000169 -0.000081 81.000859 -9.733494 8.320194 2.644324 0.000032 0.000054 -0.000003 -0.000002 -0.000003 8.077828 -0.486753 -3.806383 68.607249 -19.504833 13.800466 3.600009 0.000130 0.014573 68.078606 -16.211263 11.354466 2.100000 0.000146 0.007552 69.054107 -11.668825 8.378252 2.125490 -0.000014 0.007521 0.000001 0.000001 0.000002 -8.207786 -6.751667 -1.599560 -0.077001 -0.000003 0.000080 -0.000002 -44.370110 0.345938 0.153719 -0.000000 -0.000000 0.000000 -44.423679 -3.043532 -0.076700 0.000000 -0.000002 -0.000006 -8.728667 10.710559 -0.000009 -0.000000 -0.000000 -0.000001 -0.000679 9.278123 0.000000 -0.000000 -0.000000 8.207792 -6.751710 -1.599556 -0.074518 -0.000003 0.000081 -0.000002 -44.370014 0.346960 0.148822 0.000002 0.000000 -0.000001 -44.423664 -3.044403 -0.074314 0.000000 -0.000002 -0.000004 -8.728671 10.710558 0.000007 -0.000000 -0.000000 0.000000 -0.000680 9.278137 -0.000000 0.000000 -0.000001 
